<svg id="Capa_1" data-name="Capa 1" xmlns="http://www.w3.org/2000/svg" xmlns:xlink="http://www.w3.org/1999/xlink" viewBox="0 0 89.38 96.72"><defs><style>.cls-1{fill:url(#Degradado_sin_nombre_46);}.cls-2{fill:url(#Degradado_sin_nombre_46-2);}.cls-3{fill:url(#Degradado_sin_nombre_46-3);}.cls-4{fill:url(#Degradado_sin_nombre_46-4);}.cls-5{fill:url(#Degradado_sin_nombre_46-5);}.cls-6{fill:url(#Degradado_sin_nombre_46-6);}.cls-7{fill:url(#Degradado_sin_nombre_46-7);}</style><linearGradient id="Degradado_sin_nombre_46" x1="122.43" y1="27.58" x2="148.3" y2="27.58" gradientTransform="matrix(1, 0, 0, -1, -90.74, 46.89)" gradientUnits="userSpaceOnUse"><stop offset="0" stop-color="#0cf"/><stop offset="1" stop-color="#0051ff"/></linearGradient><linearGradient id="Degradado_sin_nombre_46-2" x1="122.83" y1="-23.68" x2="148.71" y2="-23.68" xlink:href="#Degradado_sin_nombre_46"/><linearGradient id="Degradado_sin_nombre_46-3" x1="90.74" y1="4.26" x2="104.63" y2="4.26" xlink:href="#Degradado_sin_nombre_46"/><linearGradient id="Degradado_sin_nombre_46-4" x1="166.2" y1="4.26" x2="180.09" y2="4.26" xlink:href="#Degradado_sin_nombre_46"/><linearGradient id="Degradado_sin_nombre_46-5" x1="102.54" y1="-1.5" x2="168.43" y2="-1.5" xlink:href="#Degradado_sin_nombre_46"/><linearGradient id="Degradado_sin_nombre_46-6" x1="122.31" y1="2.2" x2="149.23" y2="2.2" xlink:href="#Degradado_sin_nombre_46"/><linearGradient id="Degradado_sin_nombre_46-7" x1="128.94" y1="0.55" x2="148.4" y2="0.55" xlink:href="#Degradado_sin_nombre_46"/></defs><g id="Capa_1-2" data-name="Capa 1"><path class="cls-1" d="M31.69,18.4a28.84,28.84,0,0,1,25.87-.08l-4.62,5a29.69,29.69,0,0,0-16.35,0Z" transform="translate(0.03 -0.03)"/><path class="cls-2" d="M32.09,71.47A28.8,28.8,0,0,0,58,71.55l-4.63-5a29.51,29.51,0,0,1-16.35,0Z" transform="translate(0.03 -0.03)"/><path class="cls-3" d="M.26,22.71l5.82-2.82,7.61,7.87a33.92,33.92,0,0,0,.2,34.31l-3.42,3.3A68.09,68.09,0,0,1,.26,22.71Z" transform="translate(0.03 -0.03)"/><path class="cls-4" d="M89,22.71l-5.78-2.82-7.6,7.87a33.92,33.92,0,0,1-.2,34.31l3.41,3.3a68.2,68.2,0,0,0,10.18-42.7Z" transform="translate(0.03 -0.03)"/></g><g id="Capa_2" data-name="Capa 2"><path class="cls-5" d="M74.12,43.39A30.15,30.15,0,0,0,67.69,26l10-9L44.59,0,11.8,17l10,9.32a32.51,32.51,0,0,0,0,37.93L13.8,71a58,58,0,0,0,31,25.72,67.4,67.4,0,0,0,30.05-25.4L67.78,63A30.37,30.37,0,0,0,74.12,43.39ZM66.4,71.68C64.86,73.12,56,81.16,42.62,80.35a32.39,32.39,0,0,1-19.93-8.67l8-8.36a24.82,24.82,0,0,1-9-17c-.83-11.69,7.42-19.11,8.36-19.93l-7.39-8.67A32.41,32.41,0,0,1,43.26,9,32.72,32.72,0,0,1,66.4,17.68L59,26.35c1.1.92,8.51,7.29,8.68,18,.19,11.67-8.36,18.54-9.32,19.29Z" transform="translate(0.03 -0.03)"/><path class="cls-6" d="M50,40.38l8.5-1.73a13.75,13.75,0,0,0-4.79-5.83c-5.53-3.75-11.76-1.7-12.61-1.41a14.5,14.5,0,0,0-6.22,4.23,13.87,13.87,0,0,0-3.3,8.41,13.27,13.27,0,0,0,.65,4.47A14.13,14.13,0,0,0,45.73,58.79l3.91-5.22c-1,.11-6.75.7-11-3.26a13.1,13.1,0,0,1-3.09-4.68,13.72,13.72,0,0,1-.82-4.7,8.94,8.94,0,0,1,.2-2.68,7.82,7.82,0,0,1,1.55-3.1A7.71,7.71,0,0,1,50,40.38Z" transform="translate(0.03 -0.03)"/><path class="cls-7" d="M42.26,37.12c.3,1.06,1.13,2.31,5.51,4.51,3,1.49,3.78,1.52,6.21,3,1.66,1,2.64,1.82,3.18,3.08a6.12,6.12,0,0,1,.43,2.93,5.48,5.48,0,0,1-.41,1.54,8.67,8.67,0,0,1-2.55,3.35,11.56,11.56,0,0,1-3,1.88,9.42,9.42,0,0,0,1.08-2,4,4,0,0,0,.34-1.52,3.32,3.32,0,0,0-.26-1.16,5.36,5.36,0,0,0-2.17-2.3c-2.89-1.69-5.25-1.94-8.58-3.82a7.57,7.57,0,0,1-2.78-2.43,6.4,6.4,0,0,1-1-2.53A5.94,5.94,0,0,1,39,37.87a4.81,4.81,0,0,1,1.28-1.52,17,17,0,0,1,1.91-1.08A4.44,4.44,0,0,0,42.26,37.12Z" transform="translate(0.03 -0.03)"/></g></svg>